<?xml version="1.0" encoding="iso-8859-1"?>
<!-- Uploaded to: SVG Repo, www.svgrepo.com, Generator: SVG Repo Mixer Tools -->
<svg height="800px" width="800px" version="1.1" id="Layer_1" xmlns="http://www.w3.org/2000/svg" xmlns:xlink="http://www.w3.org/1999/xlink" 
	 viewBox="0 0 511.999 511.999" xml:space="preserve">
<g>
	<path style="fill:#FEE187;" d="M65.656,171.198c0,0,48.611-21.542,111.193-28.371c10.021-1.094,51.499-30.663,51.763-30.857
		c27.24-19.995,48.404,59.228,48.404,59.228c0.244-1.399,0.485-2.837,0.72-4.309c0.105-0.656,0.209-1.319,0.311-1.987
		c2.367-15.383,11.792-34.016,11.725-49.606c-0.044-10.168-0.88-19.042-2.868-24.876c-18.093-53.145-61.589-35.634-61.589-35.634
		s-30.338-40.747-53.387-39.498c-0.256-0.008-0.516-0.035-0.769-0.034v0.093c-2.219,0.214-4.368,0.821-6.409,1.919
		C105.192,49.282,97.3,45.276,83.938,49.918C51.539,61.171,50.69,58.162,54.771,83.133
		C61.593,124.859,64.381,155.241,65.656,171.198z"/>
	<path style="fill:#FEE187;" d="M297.221,228.58c0,0,40.042-17.745,91.593-23.371c8.255-0.901,42.422-25.259,42.638-25.418
		c22.44-16.472,39.871,48.788,39.871,48.788c0.201-1.153,0.4-2.337,0.593-3.549c0.087-0.54,0.172-1.086,0.256-1.637
		c1.949-12.672,9.715-28.02,9.658-40.863c-0.037-8.375-0.726-15.685-2.363-20.491c-14.904-43.776-50.733-29.353-50.733-29.353
		s-24.989-33.566-43.974-32.536c-0.211-0.006-0.426-0.029-0.633-0.027v0.076c-1.829,0.175-3.598,0.676-5.279,1.58
		c-49.058,26.374-55.559,23.075-66.566,26.897c-26.688,9.269-27.388,6.791-24.027,27.361
		C293.875,190.409,296.172,215.436,297.221,228.58z"/>
</g>
<path style="fill:#FFC61B;" d="M493.911,157.124c-12.896-37.878-40.501-41.966-51.77-41.966c-2.71,0-5.233,0.198-7.501,0.503
	c-10.462-12.241-29.534-30.787-49.013-30.787c-0.262,0-0.523,0.003-0.782,0.009c-0.252-0.009-0.529,0.003-0.824-0.014
	c-1.196,0.008-2.358,0.156-3.473,0.426c-3.144,0.529-6.135,1.551-8.922,3.049c-35.822,19.258-47.42,21.79-55.094,23.464
	c-2.874,0.627-5.845,1.275-9.254,2.46c-0.776,0.27-1.525,0.528-2.256,0.778c-0.067-12.802-1.271-22.471-3.678-29.544
	c-14.437-42.402-43.637-48.733-59.76-48.733c-3.851,0-7.39,0.357-10.454,0.854c-11.582-13.709-35.09-37.619-58.154-37.619
	c-0.32,0-0.639,0.005-0.958,0.014c-0.323-0.014-0.668-0.021-0.993-0.018c-1.22,0.011-2.404,0.166-3.539,0.45
	c-3.513,0.577-6.855,1.71-9.959,3.379c-43.891,23.595-58.239,26.726-67.734,28.799c-3.395,0.741-6.907,1.507-10.86,2.881
	c-3.54,1.229-6.698,2.286-9.507,3.226c-13.85,4.634-22.21,7.431-27.579,15.589c-5.799,8.812-4.26,18.232-2.129,31.269
	c4.91,30.032,8.511,59.139,10.708,86.523v18.9c0,31.09,11.797,59.472,31.138,80.925c-40.285,19.684-66.651,62.71-66.651,112.866
	v111.939c0,8.424,6.829,15.253,15.253,15.253h362.238c8.423,0,15.253-6.829,15.253-15.253s-6.83-15.253-15.253-15.253H283.241
	v-76.955c0-34.814,19.353-62.882,48.75-71.729c15.328,9.161,33.229,14.443,52.347,14.443c56.435,0,102.349-45.915,102.349-102.349
	v-15.706c0.098-0.587,0.197-1.155,0.293-1.76l0.272-1.727c0.628-4.088,2.224-9.132,3.912-14.474
	c2.796-8.842,5.965-18.863,5.923-28.776C497.038,171.544,495.999,163.255,493.911,157.124z M309.155,145.846
	c2.402-0.804,5.104-1.708,8.13-2.759c1.687-0.586,3.392-0.958,5.752-1.473c9.869-2.154,23.374-5.101,62.722-26.231
	c5.811,0.194,20.671,12.945,30.746,26.414c4.21,5.656,11.364,7.846,17.832,5.082c0.572-0.195,3.739-1.213,7.802-1.213
	c3.868,0,15.644,0,22.893,21.293c0.311,0.915,1.251,4.304,1.493,12.335c-6.277-8.906-15.401-17.419-27.735-17.419
	c-5.645,0-11.257,1.911-16.267,5.554c-11.524,8.263-30.5,20.64-36.195,22.712c-31.447,3.514-58.578,11.241-75.769,17.088
	c-1.821-17.324-4.249-35.294-7.25-53.649c-0.276-1.689-0.604-3.694-0.851-5.436C304.419,147.429,306.871,146.61,309.155,145.846z
	 M78.803,147.694c-2.228-21.617-5.224-44.061-8.976-67.022c-0.484-2.962-1.091-6.672-1.371-9.269
	c2.613-1.049,6.681-2.41,10.654-3.74c2.907-0.973,6.173-2.067,9.837-3.339c2.232-0.775,4.381-1.243,7.355-1.893
	c11.824-2.581,28.018-6.115,75.673-31.735c0.079-0.043,0.243-0.13,0.647-0.169c0.034-0.003,0.067-0.006,0.101-0.011
	c0.011,0,0.021,0,0.032-0.002l0.223-0.006c8.929,0,28.307,17.599,40.103,33.383c4.195,5.634,11.386,7.8,17.852,5.073
	c0.612-0.217,4.98-1.692,10.651-1.692c14.352,0,24.452,9.179,30.881,28.061c0.598,1.757,1.997,7.228,2.053,20.026
	c0.009,2.01-0.239,4.227-0.668,6.582c-10.705-19.123-22.658-28.462-36.331-28.462c-6.264,0-12.266,2.059-17.855,6.135
	c-14.582,10.459-38.479,25.997-45.083,28.114c-40.112,4.44-74.378,14.573-94.866,21.731
	C79.452,148.849,79.138,148.265,78.803,147.694z M80.932,191.016v-9.518c16.418-6.223,53.451-18.694,97.572-23.509
	c15.349-1.676,56.618-31.874,59.073-33.682c1.917,1.318,7.753,6.524,15.454,24.47c4.643,10.819,7.805,21.312,8.859,24.983v17.254
	c0,49.891-40.59,90.479-90.481,90.479C121.52,281.495,80.932,240.907,80.932,191.016z M252.734,404.538v76.955H45.418v-96.686
	c0-44.304,25.041-79.923,62.916-90.597c18.38,11.277,39.98,17.791,63.077,17.791c49.27,0,91.729-29.621,110.575-71.978v4.881
	c0,25.05,9.06,48.015,24.057,65.823C273.701,328.032,252.734,363.461,252.734,404.538z M384.338,316.748
	c-39.615,0-71.845-32.228-71.845-71.843v-5.979c14.129-5.246,43.367-14.777,77.977-18.554c12.033-1.313,40.948-21.726,48.322-27.054
	c5.133,5.07,12.913,21.804,17.388,37.742v13.845C456.181,284.52,423.953,316.748,384.338,316.748z"/>
</svg>